<?xml version="1.0" encoding="UTF-8" standalone="no"?>
<!-- Created with Inkscape (http://www.inkscape.org/) -->

<svg
   xmlns:dc="http://purl.org/dc/elements/1.1/"
   xmlns:cc="http://creativecommons.org/ns#"
   xmlns:rdf="http://www.w3.org/1999/02/22-rdf-syntax-ns#"
   xmlns:svg="http://www.w3.org/2000/svg"
   xmlns="http://www.w3.org/2000/svg"
   xmlns:sodipodi="http://sodipodi.sourceforge.net/DTD/sodipodi-0.dtd"
   xmlns:inkscape="http://www.inkscape.org/namespaces/inkscape"
   width="600"
   height="200"
   viewBox="0 0 158.75 52.916668"
   version="1.1"
   id="svg3719"
   inkscape:export-filename="/home/openeyes/bitmap.png"
   inkscape:export-xdpi="96"
   inkscape:export-ydpi="96"
   inkscape:version="0.92.4 (f8dce91, 2019-08-02)"
   sodipodi:docname="logo.svg">
  <defs
     id="defs3713" />
  <sodipodi:namedview
     id="base"
     pagecolor="#ffffff"
     bordercolor="#666666"
     borderopacity="1.0"
     inkscape:pageopacity="0.0"
     inkscape:pageshadow="2"
     inkscape:zoom="0.98994949"
     inkscape:cx="120.06096"
     inkscape:cy="-68.916528"
     inkscape:document-units="mm"
     inkscape:current-layer="layer1"
     showgrid="false"
     units="px"
     inkscape:snap-to-guides="true"
     inkscape:snap-others="true"
     inkscape:object-nodes="false"
     inkscape:window-width="1850"
     inkscape:window-height="1016"
     inkscape:window-x="70"
     inkscape:window-y="27"
     inkscape:window-maximized="1"
     objecttolerance="20"
     inkscape:object-paths="false"
     inkscape:snap-intersection-paths="false"
     inkscape:snap-smooth-nodes="false"
     inkscape:snap-midpoints="false"
     showborder="true"
     inkscape:showpageshadow="false">
    <inkscape:grid
       type="xygrid"
       id="grid4540" />
  </sodipodi:namedview>
  <metadata
     id="metadata3716">
    <rdf:RDF>
      <cc:Work
         rdf:about="">
        <dc:format>image/svg+xml</dc:format>
        <dc:type
           rdf:resource="http://purl.org/dc/dcmitype/StillImage" />
        <dc:title></dc:title>
      </cc:Work>
    </rdf:RDF>
  </metadata>
  <g
     inkscape:label="Layer 1"
     inkscape:groupmode="layer"
     id="layer1"
     transform="translate(0,-244.0833)">
    <g
       aria-label="Open Eyes"
       style="font-style:normal;font-variant:normal;font-weight:bold;font-stretch:normal;font-size:20.79518127px;line-height:1.25;font-family:'Liberation Sans';-inkscape-font-specification:'Liberation Sans Bold';letter-spacing:0px;word-spacing:0px;fill:#000000;fill-opacity:1;stroke:none;stroke-width:0.51987952"
       id="text3723">
      <rect
         style="fill:#f2f2f2;fill-opacity:1;stroke:none;stroke-width:3.73870277;stroke-linecap:square;stroke-linejoin:round;stroke-miterlimit:4;stroke-dasharray:none;stroke-opacity:1"
         id="rect4617"
         width="158.75"
         height="52.916668"
         x="-1.7763568e-14"
         y="244.0833" />
      <g
         id="g4615"
         transform="matrix(0.96091876,0,0,0.96091876,5.3987026,9.9547907)">
        <path
           id="path4590"
           style="font-style:normal;font-variant:normal;font-weight:bold;font-stretch:normal;font-family:'Liberation Sans';-inkscape-font-specification:'Liberation Sans Bold';stroke-width:0.51987952"
           d="m 60.433263,270.54123 q 0,2.23386 -0.883389,3.92956 -0.883389,1.6957 -2.52832,2.5994 -1.644932,0.89354 -3.838174,0.89354 -3.371093,0 -5.29018,-1.98001 -1.908933,-1.99017 -1.908933,-5.44249 0,-3.44217 1.908933,-5.37141 1.908933,-1.92924 5.310488,-1.92924 3.401556,0 5.310488,1.94955 1.919087,1.94954 1.919087,5.3511 z m -3.056323,0 q 0,-2.31509 -1.096621,-3.62494 -1.096621,-1.32001 -3.076631,-1.32001 -2.010471,0 -3.107092,1.30985 -1.096621,1.2997 -1.096621,3.6351 0,2.3557 1.116929,3.71633 1.127082,1.35046 3.066476,1.35046 2.010472,0 3.096939,-1.32 1.096621,-1.32001 1.096621,-3.74679 z"
           inkscape:connector-curvature="0" />
        <path
           sodipodi:nodetypes="ccscccsccscccccscccsscscss"
           inkscape:connector-curvature="0"
           id="path4592"
           style="font-style:normal;font-variant:normal;font-weight:bold;font-stretch:normal;font-family:'Liberation Sans';-inkscape-font-specification:'Liberation Sans Bold';stroke-width:0.51987952"
           d="m 73.145943,272.21662 c 0,1.83447 -0.368925,3.25264 -1.106775,4.25449 -0.731081,0.99508 -1.766778,1.49262 -3.107093,1.49262 -0.771696,0 -1.445238,-0.16585 -2.020625,-0.49754 -0.568618,-0.33847 -1.005236,-0.82247 -1.309853,-1.45201 h -0.06092 c 0.04061,0.20308 0.06092,0.81908 0.06092,1.84801 v 4.21387 h -2.853245 v -12.77361 c 0,-1.03569 -0.02708,-1.87847 -0.08123,-2.52832 h 2.772014 c 0.03385,0.12185 0.06092,0.36216 0.08123,0.72093 0.02708,0.35877 0.04062,0.71416 0.04062,1.06616 h 0.04062 c 0.64308,-1.34709 1.814163,-2.02063 3.513249,-2.02063 1.279391,0 2.271088,0.49416 2.975091,1.48247 0.704004,0.98155 1.056006,2.3794 1.056006,4.19356 z m -2.767205,0 c 0,-2.46401 -0.754773,-3.69602 -2.264319,-3.69602 -0.758158,0 -1.340315,0.3317 -1.746471,0.99509 -0.399386,0.66339 -0.599079,1.59077 -0.599079,2.78216 0,1.18463 0.199693,2.10186 0.599079,2.75171 0.406156,0.64308 0.981544,0.96462 1.726163,0.96462 1.523085,0 2.284627,-1.26585 2.284627,-3.79756 z" />
        <path
           id="path4594"
           style="font-style:normal;font-variant:normal;font-weight:bold;font-stretch:normal;font-family:'Liberation Sans';-inkscape-font-specification:'Liberation Sans Bold';stroke-width:0.51987952"
           d="m 79.959207,277.96373 q -2.477551,0 -3.807711,-1.46216 -1.330161,-1.47232 -1.330161,-4.28495 0,-2.72124 1.350469,-4.1834 1.350468,-1.46216 3.828019,-1.46216 2.365858,0 3.614787,1.57385 1.24893,1.5637 1.24893,4.58956 v 0.0812 h -7.046805 q 0,1.60432 0.588926,2.42678 0.59908,0.81232 1.695701,0.81232 1.512931,0 1.908933,-1.30986 l 2.690782,0.23354 q -1.167698,2.98525 -4.74187,2.98525 z m 0,-9.59543 q -1.005235,0 -1.553546,0.70061 -0.538156,0.70062 -0.568618,1.95971 h 4.264637 q -0.08123,-1.33016 -0.639696,-1.99017 -0.558464,-0.67015 -1.502777,-0.67015 z"
           inkscape:connector-curvature="0" />
        <path
           id="path4596"
           style="font-style:normal;font-variant:normal;font-weight:bold;font-stretch:normal;font-family:'Liberation Sans';-inkscape-font-specification:'Liberation Sans Bold';stroke-width:0.51987952"
           d="m 94.154354,277.76065 v -6.16341 q 0,-2.89387 -1.959702,-2.89387 -1.035697,0 -1.675393,0.89355 -0.629542,0.88339 -0.629542,2.27447 v 5.88926 h -2.853245 v -8.52927 q 0,-0.88339 -0.03046,-1.44186 -0.02031,-0.56861 -0.05077,-1.01539 h 2.721245 q 0.03046,0.19293 0.08123,1.0357 0.05077,0.83262 0.05077,1.14739 h 0.04062 q 0.578772,-1.25908 1.452007,-1.8277 0.873235,-0.56862 2.081549,-0.56862 1.74647,0 2.680629,1.07632 0.934158,1.07631 0.934158,3.1477 v 6.97573 z"
           inkscape:connector-curvature="0" />
        <path
           id="path4598"
           style="font-style:normal;font-variant:normal;font-weight:bold;font-stretch:normal;font-family:'Liberation Sans';-inkscape-font-specification:'Liberation Sans Bold';stroke-width:0.51987952"
           d="m 105.45564,277.76065 v -14.30684 h 11.25052 v 2.31509 h -8.25512 v 3.59448 h 7.63573 v 2.31509 h -7.63573 v 3.76709 h 8.67143 v 2.31509 z"
           inkscape:connector-curvature="0" />
        <path
           id="path4600"
           style="font-style:normal;font-variant:normal;font-weight:bold;font-stretch:normal;font-family:'Liberation Sans';-inkscape-font-specification:'Liberation Sans Bold';stroke-width:0.51987952"
           d="m 120.82865,282.07606 q -1.02555,0 -1.79724,-0.132 v -2.03078 q 0.53815,0.0812 0.98492,0.0812 0.60924,0 1.00524,-0.19293 0.40616,-0.19292 0.72093,-0.63969 0.32492,-0.44677 0.72092,-1.51293 l -4.34586,-10.87483 h 3.0157 l 1.72617,5.14803 q 0.40615,1.10677 1.02554,3.3914 l 0.25385,-0.96462 0.66,-2.38616 1.62462,-5.18865 h 2.98525 l -4.34587,11.56529 q -0.87323,2.11201 -1.81755,2.92433 -0.93415,0.81231 -2.41662,0.81231 z"
           inkscape:connector-curvature="0" />
        <path
           id="path4602"
           style="font-style:normal;font-variant:normal;font-weight:bold;font-stretch:normal;font-family:'Liberation Sans';-inkscape-font-specification:'Liberation Sans Bold';stroke-width:0.51987952"
           d="m 135.48072,277.96373 q -2.47755,0 -3.80771,-1.46216 -1.33017,-1.47232 -1.33017,-4.28495 0,-2.72124 1.35047,-4.1834 1.35047,-1.46216 3.82802,-1.46216 2.36586,0 3.61479,1.57385 1.24893,1.5637 1.24893,4.58956 v 0.0812 h -7.04681 q 0,1.60432 0.58893,2.42678 0.59908,0.81232 1.6957,0.81232 1.51293,0 1.90893,-1.30986 l 2.69079,0.23354 q -1.1677,2.98525 -4.74187,2.98525 z m 0,-9.59543 q -1.00524,0 -1.55355,0.70061 -0.53816,0.70062 -0.56862,1.95971 h 4.26464 q -0.0812,-1.33016 -0.6397,-1.99017 -0.55846,-0.67015 -1.50277,-0.67015 z"
           inkscape:connector-curvature="0" />
        <path
           id="path4604"
           style="font-style:normal;font-variant:normal;font-weight:bold;font-stretch:normal;font-family:'Liberation Sans';-inkscape-font-specification:'Liberation Sans Bold';stroke-width:0.51987952"
           d="m 151.81833,274.55202 q 0,1.59416 -1.30985,2.50801 -1.2997,0.9037 -3.60463,0.9037 -2.26432,0 -3.47264,-0.71077 -1.19816,-0.72093 -1.59416,-2.23386 l 2.50802,-0.3757 q 0.21323,0.78185 0.73108,1.10678 0.528,0.32492 1.8277,0.32492 1.19816,0 1.74647,-0.30461 0.54831,-0.30462 0.54831,-0.95447 0,-0.528 -0.44677,-0.83262 -0.43662,-0.31477 -1.49263,-0.528 -2.41662,-0.47723 -3.2594,-0.88339 -0.84277,-0.41631 -1.28954,-1.06616 -0.43662,-0.66 -0.43662,-1.61447 0,-1.57385 1.20831,-2.44709 1.21847,-0.88339 3.44218,-0.88339 1.9597,0 3.1477,0.76154 1.19816,0.76155 1.49263,2.2034 l -2.52832,0.264 q -0.12185,-0.67016 -0.59908,-0.99508 -0.47724,-0.33508 -1.51293,-0.33508 -1.01539,0 -1.52309,0.264 -0.50769,0.25385 -0.50769,0.86308 0,0.47724 0.38584,0.76155 0.39601,0.27415 1.32001,0.45692 1.28955,0.264 2.28463,0.54831 1.00523,0.27416 1.60431,0.66 0.60924,0.38585 0.96462,0.99509 0.36554,0.59908 0.36554,1.54339 z"
           inkscape:connector-curvature="0" />
      </g>
    </g>
    <g
       id="g4580"
       transform="matrix(1.236733,0,0,1.236733,-7.0865791,-64.046128)">
      <path
         sodipodi:nodetypes="cccc"
         inkscape:connector-curvature="0"
         id="path4575"
         d="m 12.628485,270.40665 17.372518,-9.15398 -0.668174,18.1075 z"
         style="fill:#ffffff;fill-opacity:1;stroke:none;stroke-width:0.26458332px;stroke-linecap:butt;stroke-linejoin:miter;stroke-opacity:1" />
      <ellipse
         style="stroke:#a1a1a1;stroke-width:2.27824044;stroke-miterlimit:4;stroke-dasharray:none;stroke-opacity:1"
         ry="8.8039103"
         rx="4.9285021"
         cy="270.54163"
         cx="32.113163"
         id="path3725" />
      <path
         sodipodi:nodetypes="ccc"
         inkscape:connector-curvature="0"
         id="path4538"
         d="M 34.395833,282.44788 11.90625,270.54163 34.395833,258.63538"
         style="fill:none;stroke:#000000;stroke-width:1.05843379;stroke-linecap:square;stroke-linejoin:round;stroke-miterlimit:4;stroke-dasharray:none;stroke-opacity:1" />
    </g>
  </g>
</svg>
